# Wavefront OBJ file written 2026-07-23T10:38:52
o cylinder_edgeMesh

# points : 144
# lines  : 144

# <points count="144">
v 0.025 0.01 0
v 0.0249049 0.0121789 0
v 0.0249049 0.0121789 0.001
v 0.025 0.01 0.001
v 0.0246202 0.0143412 0
v 0.0246202 0.0143412 0.001
v 0.0241481 0.0164705 0
v 0.0241481 0.0164705 0.001
v 0.0234923 0.0185505 0
v 0.0234923 0.0185505 0.001
v 0.0226577 0.0205655 0
v 0.0226577 0.0205655 0.001
v 0.0216506 0.0225 0
v 0.0216506 0.0225 0.001
v 0.0204788 0.0243394 0
v 0.0204788 0.0243394 0.001
v 0.0191511 0.0260697 0
v 0.0191511 0.0260697 0.001
v 0.0176777 0.0276777 0
v 0.0176777 0.0276777 0.001
v 0.0160697 0.0291511 0
v 0.0160697 0.0291511 0.001
v 0.0143394 0.0304788 0
v 0.0143394 0.0304788 0.001
v 0.0125 0.0316506 0
v 0.0125 0.0316506 0.001
v 0.0105655 0.0326577 0
v 0.0105655 0.0326577 0.001
v 0.0085505 0.0334923 0
v 0.0085505 0.0334923 0.001
v 0.00647048 0.0341481 0
v 0.00647048 0.0341481 0.001
v 0.0043412 0.0346202 0
v 0.0043412 0.0346202 0.001
v 0.00217889 0.0349049 0
v 0.00217889 0.0349049 0.001
v 1.53081e-18 0.035 0
v 1.53081e-18 0.035 0.001
v -0.00217889 0.0349049 0
v -0.00217889 0.0349049 0.001
v -0.0043412 0.0346202 0
v -0.0043412 0.0346202 0.001
v -0.00647048 0.0341481 0
v -0.00647048 0.0341481 0.001
v -0.0085505 0.0334923 0
v -0.0085505 0.0334923 0.001
v -0.0105655 0.0326577 0
v -0.0105655 0.0326577 0.001
v -0.0125 0.0316506 0
v -0.0125 0.0316506 0.001
v -0.0143394 0.0304788 0
v -0.0143394 0.0304788 0.001
v -0.0160697 0.0291511 0
v -0.0160697 0.0291511 0.001
v -0.0176777 0.0276777 0
v -0.0176777 0.0276777 0.001
v -0.0191511 0.0260697 0
v -0.0191511 0.0260697 0.001
v -0.0204788 0.0243394 0
v -0.0204788 0.0243394 0.001
v -0.0216506 0.0225 0
v -0.0216506 0.0225 0.001
v -0.0226577 0.0205655 0
v -0.0226577 0.0205655 0.001
v -0.0234923 0.0185505 0
v -0.0234923 0.0185505 0.001
v -0.0241481 0.0164705 0
v -0.0241481 0.0164705 0.001
v -0.0246202 0.0143412 0
v -0.0246202 0.0143412 0.001
v -0.0249049 0.0121789 0
v -0.0249049 0.0121789 0.001
v -0.025 0.01 0
v -0.025 0.01 0.001
v -0.0249049 0.00782111 0
v -0.0249049 0.00782111 0.001
v -0.0246202 0.0056588 0
v -0.0246202 0.0056588 0.001
v -0.0241481 0.00352952 0
v -0.0241481 0.00352952 0.001
v -0.0234923 0.0014495 0
v -0.0234923 0.0014495 0.001
v -0.0226577 -0.000565457 0
v -0.0226577 -0.000565457 0.001
v -0.0216506 -0.0025 0
v -0.0216506 -0.0025 0.001
v -0.0204788 -0.00433941 0
v -0.0204788 -0.00433941 0.001
v -0.0191511 -0.00606969 0
v -0.0191511 -0.00606969 0.001
v -0.0176777 -0.00767767 0
v -0.0176777 -0.00767767 0.001
v -0.0160697 -0.00915111 0
v -0.0160697 -0.00915111 0.001
v -0.0143394 -0.0104788 0
v -0.0143394 -0.0104788 0.001
v -0.0125 -0.0116506 0
v -0.0125 -0.0116506 0.001
v -0.0105655 -0.0126577 0
v -0.0105655 -0.0126577 0.001
v -0.0085505 -0.0134923 0
v -0.0085505 -0.0134923 0.001
v -0.00647048 -0.0141481 0
v -0.00647048 -0.0141481 0.001
v -0.0043412 -0.0146202 0
v -0.0043412 -0.0146202 0.001
v -0.00217889 -0.0149049 0
v -0.00217889 -0.0149049 0.001
v -4.59242e-18 -0.015 0
v -4.59242e-18 -0.015 0.001
v 0.00217889 -0.0149049 0
v 0.00217889 -0.0149049 0.001
v 0.0043412 -0.0146202 0
v 0.0043412 -0.0146202 0.001
v 0.00647048 -0.0141481 0
v 0.00647048 -0.0141481 0.001
v 0.0085505 -0.0134923 0
v 0.0085505 -0.0134923 0.001
v 0.0105655 -0.0126577 0
v 0.0105655 -0.0126577 0.001
v 0.0125 -0.0116506 0
v 0.0125 -0.0116506 0.001
v 0.0143394 -0.0104788 0
v 0.0143394 -0.0104788 0.001
v 0.0160697 -0.00915111 0
v 0.0160697 -0.00915111 0.001
v 0.0176777 -0.00767767 0
v 0.0176777 -0.00767767 0.001
v 0.0191511 -0.00606969 0
v 0.0191511 -0.00606969 0.001
v 0.0204788 -0.00433941 0
v 0.0204788 -0.00433941 0.001
v 0.0216506 -0.0025 0
v 0.0216506 -0.0025 0.001
v 0.0226577 -0.000565457 0
v 0.0226577 -0.000565457 0.001
v 0.0234923 0.0014495 0
v 0.0234923 0.0014495 0.001
v 0.0241481 0.00352952 0
v 0.0241481 0.00352952 0.001
v 0.0246202 0.0056588 0
v 0.0246202 0.0056588 0.001
v 0.0249049 0.00782111 0
v 0.0249049 0.00782111 0.001
# </points>

# <edges count="144">
l 1 2
l 3 4
l 2 5
l 6 3
l 5 7
l 8 6
l 7 9
l 10 8
l 9 11
l 12 10
l 11 13
l 14 12
l 13 15
l 16 14
l 15 17
l 18 16
l 17 19
l 20 18
l 19 21
l 22 20
l 21 23
l 24 22
l 23 25
l 26 24
l 25 27
l 28 26
l 27 29
l 30 28
l 29 31
l 32 30
l 31 33
l 34 32
l 33 35
l 36 34
l 35 37
l 38 36
l 37 39
l 40 38
l 39 41
l 42 40
l 41 43
l 44 42
l 43 45
l 46 44
l 45 47
l 48 46
l 47 49
l 50 48
l 49 51
l 52 50
l 51 53
l 54 52
l 53 55
l 56 54
l 55 57
l 58 56
l 57 59
l 60 58
l 59 61
l 62 60
l 61 63
l 64 62
l 63 65
l 66 64
l 65 67
l 68 66
l 67 69
l 70 68
l 69 71
l 72 70
l 71 73
l 74 72
l 73 75
l 76 74
l 75 77
l 78 76
l 77 79
l 80 78
l 79 81
l 82 80
l 81 83
l 84 82
l 83 85
l 86 84
l 85 87
l 88 86
l 87 89
l 90 88
l 89 91
l 92 90
l 91 93
l 94 92
l 93 95
l 96 94
l 95 97
l 98 96
l 97 99
l 100 98
l 99 101
l 102 100
l 101 103
l 104 102
l 103 105
l 106 104
l 105 107
l 108 106
l 107 109
l 110 108
l 109 111
l 112 110
l 111 113
l 114 112
l 113 115
l 116 114
l 115 117
l 118 116
l 117 119
l 120 118
l 119 121
l 122 120
l 121 123
l 124 122
l 123 125
l 126 124
l 125 127
l 128 126
l 127 129
l 130 128
l 129 131
l 132 130
l 131 133
l 134 132
l 133 135
l 136 134
l 135 137
l 138 136
l 137 139
l 140 138
l 139 141
l 142 140
l 141 143
l 144 142
l 143 1
l 4 144
# </edges>
